<?xml version="1.0" standalone="no"?>
<!DOCTYPE svg PUBLIC "-//W3C//DTD SVG 20010904//EN"
 "http://www.w3.org/TR/2001/REC-SVG-20010904/DTD/svg10.dtd">
<svg version="1.0" xmlns="http://www.w3.org/2000/svg"
 width="636.000000pt" height="636.000000pt" viewBox="0 0 636.000000 636.000000"
 preserveAspectRatio="xMidYMid meet">
<metadata>
Created by potrace 1.14, written by Peter Selinger 2001-2017
</metadata>
<g transform="translate(0.000000,636.000000) scale(0.100000,-0.100000)"
fill="#000000" stroke="none">
<path d="M2080 6088 c-30 -40 -100 -136 -155 -213 -56 -77 -203 -277 -326
-445 -204 -277 -498 -676 -812 -1105 l-117 -160 0 -1607 c0 -885 1 -1608 3
-1608 2 0 73 -16 158 -35 85 -20 165 -38 179 -41 24 -5 96 -21 133 -30 9 -2
26 -6 38 -9 11 -2 28 -6 37 -9 9 -3 28 -7 42 -10 32 -7 682 -156 695 -160 6
-1 28 -7 50 -11 22 -5 42 -10 45 -10 3 -1 16 -5 30 -8 14 -4 36 -9 50 -12 23
-4 623 -141 663 -151 9 -2 26 -6 38 -9 11 -2 28 -6 37 -9 9 -3 31 -8 47 -11
17 -2 39 -7 50 -10 17 -4 597 -138 650 -150 35 -8 64 -15 86 -20 11 -2 28 -6
37 -9 9 -3 28 -7 42 -10 14 -3 122 -27 240 -54 118 -27 219 -48 225 -45 5 2
42 48 81 101 39 53 221 302 405 552 184 250 373 507 419 570 91 125 256 350
448 609 l122 165 0 1595 c0 878 -4 1601 -8 1606 -5 9 -441 114 -582 141 -14 3
-33 7 -42 10 -20 6 16 -2 -408 94 -195 45 -363 83 -372 86 -10 2 -27 6 -39 9
-11 2 -28 6 -37 9 -9 3 -28 7 -42 10 -14 2 -56 12 -95 21 -38 9 -198 46 -355
81 -157 36 -293 67 -302 70 -10 2 -26 6 -35 8 -41 10 -820 188 -843 192 -14 3
-38 9 -55 14 -38 12 -345 80 -359 80 -7 0 -36 -33 -66 -72z"/>
</g>
</svg>
